HIERARCHY
ROOT hip
{
  OFFSET 0 0 0
  CHANNELS 6 Xposition Yposition Zposition Zrotation Yrotation Xrotation
  JOINT abdomen
  {
    OFFSET 0 20.6881 -0.73152
    CHANNELS 3 Zrotation Xrotation Yrotation
    JOINT chest
    {
      OFFSET 0 11.7043 -0.48768
      CHANNELS 3 Zrotation Xrotation Yrotation
      JOINT neck
      {
        OFFSET 0 22.1894 -2.19456
        CHANNELS 3 Zrotation Xrotation Yrotation
        JOINT head
        {
          OFFSET -0.24384 7.07133 1.2192
          CHANNELS 3 Zrotation Xrotation Yrotation
          JOINT leftEye
          {
            OFFSET 4.14528 8.04674 8.04672
            CHANNELS 3 Zrotation Xrotation Yrotation
            End Site
            {
              OFFSET 1 0 0
            }
          }
          JOINT rightEye
          {
            OFFSET -3.6576 8.04674 8.04672
            CHANNELS 3 Zrotation Xrotation Yrotation
            End Site
            {
              OFFSET 1 0 0
            }
          }
        }
      }
      JOINT rCollar
      {
        OFFSET -2.68224 19.2634 -4.8768
        CHANNELS 3 Zrotation Xrotation Yrotation
        JOINT rShldr
        {
          OFFSET -8.77824 -1.95073 1.46304
          CHANNELS 3 Zrotation Xrotation Yrotation
          JOINT rForeArm
          {
            OFFSET -28.1742 -1.7115 0.48768
            CHANNELS 3 Zrotation Xrotation Yrotation
            JOINT rHand
            {
              OFFSET -22.5879 0.773209 7.07136
              CHANNELS 3 Zrotation Xrotation Yrotation
              JOINT rThumb1
              {
                OFFSET -1.2192 -0.487915 3.41376
                CHANNELS 3 Zrotation Xrotation Yrotation
                JOINT rThumb2
                {
                  OFFSET -3.37035 -0.52449 3.41376
                  CHANNELS 3 Zrotation Xrotation Yrotation
                  End Site
                  {
                    OFFSET -1.78271 -1.18214 1.43049
                  }
                }
              }
              JOINT rIndex1
              {
                OFFSET -7.75947 0.938293 5.60832
                CHANNELS 3 Zrotation Xrotation Yrotation
                JOINT rIndex2
                {
                  OFFSET -2.54057 -0.884171 1.56538
                  CHANNELS 3 Zrotation Xrotation Yrotation
                  End Site
                  {
                    OFFSET -1.62519 -0.234802 1.16502
                  }
                }
              }
              JOINT rMid1
              {
                OFFSET -8.24714 1.18213 3.41376
                CHANNELS 3 Zrotation Xrotation Yrotation
                JOINT rMid2
                {
                  OFFSET -3.10165 -0.590103 1.0647
                  CHANNELS 3 Zrotation Xrotation Yrotation
                  End Site
                  {
                    OFFSET -2.48547 -0.328903 0.83742
                  }
                }
              }
              JOINT rRing1
              {
                OFFSET -8.82822 0.546677 1.51678
                CHANNELS 3 Zrotation Xrotation Yrotation
                JOINT rRing2
                {
                  OFFSET -2.60934 -0.819778 -0.0198488
                  CHANNELS 3 Zrotation Xrotation Yrotation
                  End Site
                  {
                    OFFSET -2.33842 -0.294052 0.168128
                  }
                }
              }
              JOINT rPinky1
              {
                OFFSET -8.27202 -0.0477905 -0.4584
                CHANNELS 3 Zrotation Xrotation Yrotation
                JOINT rPinky2
                {
                  OFFSET -1.82734 -0.647385 -0.700984
                  CHANNELS 3 Zrotation Xrotation Yrotation
                  End Site
                  {
                    OFFSET -1.69225 -0.51767 -0.607171
                  }
                }
              }
            }
          }
        }
      }
      JOINT lCollar
      {
        OFFSET 2.68224 19.2634 -4.8768
        CHANNELS 3 Zrotation Xrotation Yrotation
        JOINT lShldr
        {
          OFFSET 8.77824 -1.95073 1.46304
          CHANNELS 3 Zrotation Xrotation Yrotation
          JOINT lForeArm
          {
            OFFSET 28.1742 -1.7115 0.48768
            CHANNELS 3 Zrotation Xrotation Yrotation
            JOINT lHand
            {
              OFFSET 22.5879 0.773209 7.07136
              CHANNELS 3 Zrotation Xrotation Yrotation
              JOINT lThumb1
              {
                OFFSET 1.2192 -0.487915 3.41376
                CHANNELS 3 Zrotation Xrotation Yrotation
                JOINT lThumb2
                {
                  OFFSET 3.37035 -0.52449 3.41376
                  CHANNELS 3 Zrotation Xrotation Yrotation
                  End Site
                  {
                    OFFSET 1.78271 -1.18214 1.43049
                  }
                }
              }
              JOINT lIndex1
              {
                OFFSET 7.75947 0.938293 5.60832
                CHANNELS 3 Zrotation Xrotation Yrotation
                JOINT lIndex2
                {
                  OFFSET 2.54057 -0.884171 1.56538
                  CHANNELS 3 Zrotation Xrotation Yrotation
                  End Site
                  {
                    OFFSET 1.62519 -0.234802 1.16502
                  }
                }
              }
              JOINT lMid1
              {
                OFFSET 8.24714 1.18213 3.41376
                CHANNELS 3 Zrotation Xrotation Yrotation
                JOINT lMid2
                {
                  OFFSET 3.10165 -0.590103 1.0647
                  CHANNELS 3 Zrotation Xrotation Yrotation
                  End Site
                  {
                    OFFSET 2.48547 -0.328903 0.83742
                  }
                }
              }
              JOINT lRing1
              {
                OFFSET 8.82822 0.546677 1.51678
                CHANNELS 3 Zrotation Xrotation Yrotation
                JOINT lRing2
                {
                  OFFSET 2.60934 -0.819778 -0.0198488
                  CHANNELS 3 Zrotation Xrotation Yrotation
                  End Site
                  {
                    OFFSET 2.33842 -0.294052 0.168128
                  }
                }
              }
              JOINT lPinky1
              {
                OFFSET 8.27202 -0.0477905 -0.4584
                CHANNELS 3 Zrotation Xrotation Yrotation
                JOINT lPinky2
                {
                  OFFSET 1.82734 -0.647385 -0.700984
                  CHANNELS 3 Zrotation Xrotation Yrotation
                  End Site
                  {
                    OFFSET 1.69225 -0.51767 -0.607171
                  }
                }
              }
            }
          }
        }
      }
    }
  }
  JOINT rButtock
  {
    OFFSET -8.77824 4.35084 1.2192
    CHANNELS 3 Zrotation Xrotation Yrotation
    JOINT rThigh
    {
      OFFSET 0 -1.70687 -2.19456
      CHANNELS 3 Zrotation Xrotation Yrotation
      JOINT rShin
      {
        OFFSET 0 -36.8199 0.73152
        CHANNELS 3 Zrotation Xrotation Yrotation
        JOINT rFoot
        {
          OFFSET 0.73152 -45.1104 -5.12064
          CHANNELS 3 Zrotation Xrotation Yrotation
          End Site
          {
            OFFSET -1.1221 -3.69964 12.103
          }
        }
      }
    }
  }
  JOINT lButtock
  {
    OFFSET 8.77824 4.35084 1.2192
    CHANNELS 3 Zrotation Xrotation Yrotation
    JOINT lThigh
    {
      OFFSET 0 -1.70687 -2.19456
      CHANNELS 3 Zrotation Xrotation Yrotation
      JOINT lShin
      {
        OFFSET 0 -36.8199 0.73152
        CHANNELS 3 Zrotation Xrotation Yrotation
        JOINT lFoot
        {
          OFFSET -0.73152 -45.1104 -5.12064
          CHANNELS 3 Zrotation Xrotation Yrotation
          End Site
          {
            OFFSET 1.1221 -3.69964 12.103
          }
        }
      }
    }
  }
}
MOTION
Frames:	4
Frame Time:	0.00833333
27.459 78.85940000000001 -50.7186 -159.056458 -70.595562 174.272357 9.721298 -14.799867 -161.110468 1.360291 -6.110936 165.385694 6.358704 36.246743 -159.191876 28.068292 29.685732 -160.606352 0.002358 0.0 0.002439 -0.002936 0.0 -0.002813 -0.023994 0.144898 0.032296 -106.899639 -9.863459 -174.162842 -0.328214 -21.214019 -151.566464 144.425399 -46.593917 132.063764 -162.616494 -0.302635 89.313854 50.196971 -62.967949 39.89621 -1.956084 3.105782 1.140322 4.272743 9.584755 1.448656 89.034973 -81.393484 59.759027 -154.203949 20.013671 138.512269 -145.122397 1.121217 -179.480426 2.567918 -43.836381 -17.906513 3.653186 10.395748 3.321475 -80.76819 -54.491817 -80.162084 155.548534 -3.804374 -161.899608 75.102384 14.622783 -2.303906 -174.022995 2.105934 83.828442 12.400168 9.84319 1.054813 -82.304966 -50.136699 -32.95497 136.333138 17.86261 -101.174831 162.918188 -37.929433 -122.63002 -96.450809 -70.362906 -41.36675 167.298623 -27.767275 -145.261158 42.53918 58.276788 -36.560662 145.098817 -1.60551 178.622367 76.030255 -77.98201 97.693281 6.262162 -14.052042 5.883114 13.133086 -30.621116 14.546451 0.020814 0.000735 0.01561 0.391583 -6.983556 3.217329 -2.527128 30.172891 -59.130736 -129.133496 -46.36511 -11.548448 179.980273 75.750782 0.016231 -164.317601 25.76716 -54.418016 -49.144048 28.5512 106.249888 71.924311 -24.078284 -9.026841
27.321299999999997 78.7315 -50.912 -155.029057 -73.33771 169.984064 9.324091 -10.429812 2.087835 -2.329558 1.159207 2.563498 18.765236 22.881192 81.443812 -27.943809 20.498128 -31.482712 0.001994 -0.0 -0.00125 0.001994 -0.0 -0.00125 -6.042829 25.598995 7.235127 -106.899791 -1.572325 160.57043 170.093373 9.993652 -60.412695 -26.347206 70.160026 17.195832 -5.434195 5.264726 1.077882 -144.693519 -51.555898 116.70786 -0.327226 0.530244 0.184674 -79.56144 48.07707 62.047293 -160.993914 -7.659081 143.392388 -13.651354 36.285282 11.088272 -145.100409 -1.520875 -178.649687 12.044474 29.417596 -5.660175 -25.538133 -38.086806 -24.599922 47.065304 83.242036 -8.989134 150.119919 21.701221 -155.219912 -100.307449 -15.939808 -148.90726 98.002445 -21.147571 -62.540023 -118.955719 -77.521315 -99.513311 164.698666 -2.371901 -89.585031 154.659742 -0.379298 -78.390681 19.169564 24.114575 -13.38167 10.144504 23.598759 -6.538718 154.143375 11.634603 -139.428332 175.448864 -39.374423 -142.863511 0.006472 3.558899 -1.120405 155.798596 -57.259168 -179.607084 75.778445 -51.668445 74.249545 -42.002427 80.403197 4.610284 -0.000263 -0.000997 0.000338 1.115897 -8.306541 180.0 -10.564923 -38.589436 -52.876921 -118.693728 -3.428943 -179.154845 -0.0 0.001618 0.001537 19.92553 -45.549436 14.788033 -10.408943 57.466299 85.445441 -125.815025 17.142498 17.246049
26.978 78.7179 -51.0929 -150.093065 -75.831286 164.367908 9.65483 -10.778577 2.221033 -2.245968 1.546071 3.095755 -1.524902 21.34123 -52.71879 15.840416 -16.741094 101.53965 0.001833 0.0 0.00201 0.002197 -0.0 -0.00247 -155.417397 -2.951467 161.718412 -55.845225 31.752299 16.127762 171.50721 45.734837 -55.23927 -19.616828 65.015397 11.932273 116.309885 -50.011113 56.954761 -168.186663 -27.431499 123.539956 -19.171264 24.114534 13.38032 176.660535 -37.343092 105.668288 3.453603 -10.534306 -1.680209 9.091099 -18.177453 -1.495796 -132.481426 54.102543 155.532673 7.033148 26.587277 -3.591851 5.070353 14.897085 4.568976 -24.524152 -41.295151 -24.930669 155.417097 -2.951229 -161.719196 75.227538 9.686789 -5.545202 178.06335 -2.245552 85.112221 9.590491 3.198469 2.153118 78.030827 38.6892 -42.412541 118.995598 -16.354145 -79.052625 14.228309 19.203688 -9.559138 -70.129639 -56.828022 -24.22298 -2.100486 -6.3053 1.08224 13.394735 36.407284 -10.634301 145.121141 1.894781 179.723409 155.697785 1.498398 179.420878 -6.225726 18.790017 -5.573433 129.058337 -29.154919 127.009359 -0.00022 -0.000144 0.000283 0.458877 -6.937719 112.38322 38.047506 -19.520138 78.154896 -159.579452 27.134747 -140.837518 -179.997287 75.750868 -0.002799 -163.394637 27.080279 -147.817557 -40.691212 -47.271343 -165.130011 14.415996 -30.107214 -38.876859
26.447300000000002 78.72869999999999 -51.085499999999996 -143.824485 -78.521799 157.3856 10.978343 -15.329259 -143.729257 -0.583664 -7.081731 149.943205 -2.623197 25.585575 -80.607274 25.443131 -7.169668 126.293771 -0.000127 0.0 -0.002884 -0.000127 0.0 -0.002884 3.821014 -59.618658 -12.260205 80.31937 43.138247 -56.601625 -168.619405 12.290691 27.15482 138.213916 -51.190253 126.821973 -93.743171 37.963782 53.548939 -30.06619 -7.366591 35.617774 -148.886175 -12.609228 120.245941 -5.495993 28.016458 -1.850918 -153.321063 13.628632 138.861271 5.271238 -5.852375 -0.327751 -75.675142 -72.116448 -92.82881 -150.991385 1.047933 176.30024 -25.535728 -38.088386 -24.597385 -174.874077 79.107555 -141.818861 9.651374 34.836312 -11.198656 98.966198 -31.076177 -142.421452 176.326503 7.906053 85.274183 9.055766 2.07453 2.294295 94.791983 37.828085 -54.283385 24.434317 -9.370117 -33.284703 -159.641202 -69.973268 -102.395983 168.905341 -35.903356 -114.905747 167.374854 -28.008497 -145.269417 129.009279 51.860431 -118.068394 145.118662 0.310185 179.225561 20.014035 -70.297616 41.190034 -1.297609 3.491572 -1.193711 147.399096 11.659378 143.689511 -179.998216 75.750375 -0.001841 -177.0654 68.345164 164.933005 -2.156692 -42.745643 -30.955953 18.362787 24.383091 -165.706124 179.982802 75.748161 0.015175 -164.549715 31.170681 -0.0 -25.063788 53.32466 -63.25526 -158.995258 63.482881 -117.49328
